<svg width="495" height="629" viewBox="0 0 495 629" fill="none" xmlns="http://www.w3.org/2000/svg">
<g clip-path="url(#clip0_261_1999)">
<path d="M113.912 293L83.7681 225.8H87.4161L116.504 290.792H114.68L143.768 225.8H147.224L117.08 293H113.912ZM159.331 293V225.8H162.595V293H159.331ZM200.422 293V228.776H175.75V225.8H228.262V228.776H203.59V293H200.422ZM226.393 293L257.497 225.8H260.665L291.769 293H288.217L258.361 228.008H259.801L229.945 293H226.393ZM237.145 273.32L238.393 270.536H279.481L280.729 273.32H237.145ZM305.333 293V225.8H308.597V290.024H347.957V293H305.333ZM361.688 293V225.8H364.952V293H361.688ZM405.66 293V269.096L406.428 271.304L378.492 225.8H382.044L408.156 268.232H406.524L432.732 225.8H436.188L408.156 271.304L408.924 269.096V293H405.66Z" fill="white"/>
<path d="M35.4157 225.384C30.4237 225.384 25.7837 224.552 21.4957 222.888C17.2717 221.16 13.5597 218.76 10.3597 215.688C7.22368 212.616 4.79168 209.032 3.06368 204.936C1.33568 200.776 0.47168 196.264 0.47168 191.4C0.47168 186.536 1.33568 182.056 3.06368 177.96C4.79168 173.8 7.22368 170.184 10.3597 167.112C13.5597 164.04 17.2717 161.672 21.4957 160.008C25.7837 158.28 30.4237 157.416 35.4157 157.416C40.0877 157.416 44.4717 158.152 48.5677 159.624C52.6637 161.096 56.1517 163.304 59.0317 166.248L57.1117 168.456C54.0397 165.512 50.7117 163.432 47.1277 162.216C43.5437 161 39.6717 160.392 35.5117 160.392C30.9677 160.392 26.7437 161.192 22.8397 162.792C18.9997 164.328 15.6397 166.504 12.7597 169.32C9.87968 172.136 7.63968 175.432 6.03968 179.208C4.50368 182.92 3.73568 186.984 3.73568 191.4C3.73568 195.816 4.50368 199.912 6.03968 203.688C7.63968 207.4 9.87968 210.664 12.7597 213.48C15.6397 216.296 18.9997 218.504 22.8397 220.104C26.7437 221.64 30.9677 222.408 35.5117 222.408C39.6077 222.408 43.4797 221.8 47.1277 220.584C50.8397 219.304 54.1357 217.224 57.0157 214.344L58.9357 216.744C55.9917 219.624 52.4717 221.8 48.3757 223.272C44.2797 224.68 39.9597 225.384 35.4157 225.384ZM55.8637 216.552V191.88H58.9357V216.744L55.8637 216.552ZM84.7995 189.384H121.856V192.36H84.7995V189.384ZM85.3755 222.024H127.52V225H82.1115V157.8H126.176V160.776H85.3755V222.024ZM159.485 225V160.776H134.813V157.8H187.325V160.776H162.653V225H159.485ZM200.447 225V157.8H203.135L234.815 212.808H233.375L264.863 157.8H267.551L267.647 225H264.479L264.383 162.6H265.439L234.911 215.688H233.183L202.463 162.6H203.615V225H200.447ZM281.092 225L312.196 157.8H315.364L346.468 225H342.916L313.06 160.008H314.5L284.644 225H281.092ZM291.844 205.32L293.092 202.536H334.18L335.428 205.32H291.844ZM360.032 225V157.8H362.72L412.064 221.16H410.432V157.8H413.696V225H411.008L361.664 161.64H363.296V225H360.032Z" fill="white"/>
<path d="M84.2881 135V67.8H87.5521V135H84.2881ZM112.612 135V67.8H115.3L146.98 122.808H145.54L177.028 67.8H179.716L179.812 135H176.644L176.548 72.6H177.604L147.076 125.688H145.348L114.628 72.6H115.78V135H112.612ZM193.257 135L224.361 67.8H227.529L258.633 135H255.081L225.225 70.008H226.665L196.809 135H193.257ZM204.009 115.32L205.257 112.536H246.345L247.593 115.32H204.009ZM299.387 135.384C294.395 135.384 289.755 134.552 285.467 132.888C281.243 131.16 277.531 128.76 274.331 125.688C271.195 122.616 268.763 119.032 267.035 114.936C265.307 110.776 264.443 106.264 264.443 101.4C264.443 96.536 265.307 92.056 267.035 87.96C268.763 83.8 271.195 80.184 274.331 77.112C277.531 74.04 281.243 71.672 285.467 70.008C289.755 68.28 294.395 67.416 299.387 67.416C304.059 67.416 308.443 68.152 312.539 69.624C316.635 71.096 320.123 73.304 323.003 76.248L321.083 78.456C318.011 75.512 314.683 73.432 311.099 72.216C307.515 71 303.643 70.392 299.483 70.392C294.939 70.392 290.715 71.192 286.811 72.792C282.971 74.328 279.611 76.504 276.731 79.32C273.851 82.136 271.611 85.432 270.011 89.208C268.475 92.92 267.707 96.984 267.707 101.4C267.707 105.816 268.475 109.912 270.011 113.688C271.611 117.4 273.851 120.664 276.731 123.48C279.611 126.296 282.971 128.504 286.811 130.104C290.715 131.64 294.939 132.408 299.483 132.408C303.579 132.408 307.451 131.8 311.099 130.584C314.811 129.304 318.107 127.224 320.987 124.344L322.907 126.744C319.963 129.624 316.443 131.8 312.347 133.272C308.251 134.68 303.931 135.384 299.387 135.384ZM319.835 126.552V101.88H322.907V126.744L319.835 126.552ZM348.771 99.384H385.827V102.36H348.771V99.384ZM349.347 132.024H391.491V135H346.083V67.8H390.147V70.776H349.347V132.024ZM427.68 135.384C422.752 135.384 418.08 134.52 413.664 132.792C409.312 131 405.984 128.76 403.68 126.072L405.408 123.768C407.584 126.2 410.656 128.28 414.624 130.008C418.656 131.672 422.976 132.504 427.584 132.504C432.256 132.504 436.096 131.864 439.104 130.584C442.112 129.304 444.32 127.608 445.728 125.496C447.2 123.32 447.936 120.92 447.936 118.296C447.936 115.224 447.168 112.76 445.632 110.904C444.096 109.048 442.048 107.576 439.488 106.488C436.992 105.4 434.24 104.504 431.232 103.8C428.288 103.096 425.28 102.36 422.208 101.592C419.2 100.76 416.416 99.736 413.856 98.52C411.36 97.24 409.344 95.512 407.808 93.336C406.336 91.096 405.6 88.216 405.6 84.696C405.6 81.688 406.4 78.872 408 76.248C409.6 73.624 412.096 71.512 415.488 69.912C418.88 68.248 423.232 67.416 428.544 67.416C432.192 67.416 435.776 67.992 439.296 69.144C442.88 70.232 445.92 71.704 448.416 73.56L446.976 76.152C444.288 74.168 441.312 72.696 438.048 71.736C434.784 70.776 431.648 70.296 428.64 70.296C424.16 70.296 420.416 70.968 417.408 72.312C414.464 73.592 412.288 75.32 410.88 77.496C409.472 79.672 408.768 82.072 408.768 84.696C408.768 87.832 409.536 90.328 411.072 92.184C412.608 94.04 414.624 95.512 417.12 96.6C419.68 97.688 422.464 98.584 425.472 99.288C428.48 99.992 431.488 100.76 434.496 101.592C437.504 102.36 440.256 103.384 442.752 104.664C445.312 105.944 447.328 107.672 448.8 109.848C450.336 111.96 451.104 114.744 451.104 118.2C451.104 121.208 450.272 124.024 448.608 126.648C447.008 129.272 444.448 131.384 440.928 132.984C437.472 134.584 433.056 135.384 427.68 135.384Z" fill="white"/>
<path d="M43.1277 68.384C38.1997 68.384 33.6237 67.552 29.3997 65.888C25.1757 64.16 21.4957 61.76 18.3597 58.688C15.2237 55.616 12.7917 52.032 11.0637 47.936C9.33568 43.776 8.47168 39.264 8.47168 34.4C8.47168 29.536 9.33568 25.056 11.0637 20.96C12.7917 16.8 15.2237 13.184 18.3597 10.112C21.4957 7.04 25.1757 4.672 29.3997 3.008C33.6237 1.28 38.1997 0.416 43.1277 0.416C47.6717 0.416 51.9597 1.152 55.9917 2.624C60.0237 4.096 63.5117 6.336 66.4557 9.344L64.4397 11.456C61.4317 8.576 58.1357 6.528 54.5517 5.312C51.0317 4.032 47.2557 3.392 43.2237 3.392C38.7437 3.392 34.5837 4.192 30.7437 5.792C26.9037 7.328 23.5437 9.504 20.6637 12.32C17.8477 15.136 15.6397 18.432 14.0397 22.208C12.5037 25.92 11.7357 29.984 11.7357 34.4C11.7357 38.816 12.5037 42.912 14.0397 46.688C15.6397 50.4 17.8477 53.664 20.6637 56.48C23.5437 59.296 26.9037 61.504 30.7437 63.104C34.5837 64.64 38.7437 65.408 43.2237 65.408C47.2557 65.408 51.0317 64.8 54.5517 63.584C58.1357 62.304 61.4317 60.192 64.4397 57.248L66.4557 59.36C63.5117 62.368 60.0237 64.64 55.9917 66.176C51.9597 67.648 47.6717 68.384 43.1277 68.384ZM84.2052 68V0.799999H107.534C113.102 0.799999 117.87 1.696 121.838 3.488C125.87 5.28 128.942 7.84 131.054 11.168C133.166 14.432 134.222 18.4 134.222 23.072C134.222 27.744 133.166 31.744 131.054 35.072C128.942 38.4 125.87 40.96 121.838 42.752C117.87 44.544 113.102 45.44 107.534 45.44H86.0292L87.4692 43.904V68H84.2052ZM131.438 68L113.966 43.616H117.71L135.278 68H131.438ZM87.4692 43.904L86.0292 42.464H107.726C115.278 42.464 121.038 40.768 125.006 37.376C129.038 33.984 131.054 29.216 131.054 23.072C131.054 16.928 129.038 12.192 125.006 8.864C121.038 5.472 115.278 3.776 107.726 3.776H86.0292L87.4692 2.24V43.904ZM156.28 32.384H193.336V35.36H156.28V32.384ZM156.856 65.024H199V68H153.592V0.799999H197.656V3.776H156.856V65.024ZM206.581 68L237.685 0.799999H240.853L271.957 68H268.405L238.549 3.008H239.989L210.133 68H206.581ZM217.333 48.32L218.581 45.536H259.669L260.917 48.32H217.333ZM294.914 68V3.776H270.242V0.799999H322.754V3.776H298.082V68H294.914ZM335.875 68V0.799999H339.139V68H335.875ZM364.199 68V0.799999H366.887L416.231 64.16H414.599V0.799999H417.863V68H415.175L365.831 4.64H367.463V68H364.199ZM471.088 68.384C466.096 68.384 461.456 67.552 457.168 65.888C452.944 64.16 449.232 61.76 446.032 58.688C442.896 55.616 440.464 52.032 438.736 47.936C437.008 43.776 436.144 39.264 436.144 34.4C436.144 29.536 437.008 25.056 438.736 20.96C440.464 16.8 442.896 13.184 446.032 10.112C449.232 7.04 452.944 4.672 457.168 3.008C461.456 1.28 466.096 0.416 471.088 0.416C475.76 0.416 480.144 1.152 484.24 2.624C488.336 4.096 491.824 6.304 494.704 9.248L492.784 11.456C489.712 8.512 486.384 6.432 482.8 5.216C479.216 4 475.344 3.392 471.184 3.392C466.64 3.392 462.416 4.192 458.512 5.792C454.672 7.328 451.312 9.504 448.432 12.32C445.552 15.136 443.312 18.432 441.712 22.208C440.176 25.92 439.408 29.984 439.408 34.4C439.408 38.816 440.176 42.912 441.712 46.688C443.312 50.4 445.552 53.664 448.432 56.48C451.312 59.296 454.672 61.504 458.512 63.104C462.416 64.64 466.64 65.408 471.184 65.408C475.28 65.408 479.152 64.8 482.8 63.584C486.512 62.304 489.808 60.224 492.688 57.344L494.608 59.744C491.664 62.624 488.144 64.8 484.048 66.272C479.952 67.68 475.632 68.384 471.088 68.384ZM491.536 59.552V34.88H494.608V59.744L491.536 59.552Z" fill="white"/>
<path d="M160 34C390.399 34 479.066 34 494.6 34" stroke="white" stroke-width="3"/>
<path d="M83 191C252.391 191 317.58 191 329 191" stroke="white" stroke-width="3"/>
<path d="M361.6 292C361.6 521.986 361.6 610.494 361.6 626" stroke="white" stroke-width="3"/>
<path d="M362.6 627L350.6 615" stroke="white" stroke-width="3"/>
<path d="M360.6 627L373.6 615" stroke="white" stroke-width="3"/>
<path d="M117 290.5C247.142 290.5 297.226 290.5 306 290.5" stroke="white" stroke-width="3"/>
<path d="M76.5 70H94.5" stroke="white" stroke-width="3"/>
<path d="M78 135.5H96" stroke="white" stroke-width="3"/>
<path d="M152 226H170" stroke="white" stroke-width="3"/>
<path d="M353 226H371" stroke="white" stroke-width="3"/>
<path d="M304.5 103.5H322.5M40 190H58" stroke="white" stroke-width="3"/>
<path d="M353 291H371" stroke="white" stroke-width="3"/>
</g>
<defs>
<clipPath id="clip0_261_1999">
<rect width="495" height="629" fill="white"/>
</clipPath>
</defs>
</svg>
